<?xml version="1.0" encoding="utf-8"?>
<!-- Generator: Adobe Illustrator 27.5.0, SVG Export Plug-In . SVG Version: 6.00 Build 0)  -->
<svg version="1.1" id="Layer_1" xmlns="http://www.w3.org/2000/svg" xmlns:xlink="http://www.w3.org/1999/xlink" x="0px" y="0px"
	 viewBox="0 0 300 70" style="enable-background:new 0 0 300 70;" xml:space="preserve">
<style type="text/css">
	.st0{fill:#FFFFFF;}
</style>
<g>
	<path class="st0" d="M286.8,6.3v17.9c-1.3-5-5.9-8.9-12.5-8.9c-12.4,0-17.1,10.7-17.1,23.4c0,11.2,3.4,23.2,15.8,23.2
		c8.9,0,12.8-7.9,14.2-12.4V61h7.7V6.3H286.8z M275.8,55.1c-7.6,0-11.3-7.1-11.3-15.8c0-8.7,3.4-15.8,11.3-15.8
		c7.9,0,11.3,7.1,11.3,15.8C287.1,48,282.7,55.1,275.8,55.1z"/>
	<rect x="173.7" y="8" class="st0" width="8.2" height="53"/>
	<path class="st0" d="M155.8,6.3h-2.2c-3.1,12.2-12.8,13.9-12.8,13.9v5.3h6.7v23.7c0,9.8,6.1,12.9,12.8,12.9c6.7,0,9.7-4.4,9.7-4.4
		v-6.2c-1,1.2-2.7,4.4-8.3,4.4c-5.6,0-6.7-4.9-6.7-7.9V25.5h15.8v-7.9h-15V6.3z"/>
	<path class="st0" d="M200.2,15.5c-9.3,0-15,7.2-15,7.2v8.9c2.9-4.9,9.4-7.9,15.6-7.9c6.1,0,7.9,2.8,7.9,6.8c0,3.3-4,4.8-12,7.4
		c-10.9,3.5-13,7.2-13,12.5c0,5.3,2.6,12.1,12.3,12.1c6.9,0,10.9-6.2,12.7-9.9V61h7.2V30.5C215.9,18.7,209.5,15.5,200.2,15.5z
		 M208.6,46.7C206.5,52.8,202,56,198,56c-4.8,0-6.6-2.6-6.6-5.7c0-3.1,1.2-5.4,6.1-6.8c3.3-0.9,8.1-2.8,11.1-4V46.7z"/>
	<path class="st0" d="M123,15.5L123,15.5c-9.3,0-18.7,6.9-18.7,23.7s8.5,23.7,18.4,23.7c10,0,15.4-8,15.4-8v-8.2
		c0,0-3.8,9.4-14.5,9.4c-9.7,0-11.7-8.6-12.1-14.7h28.9C142,22.4,133.8,15.5,123,15.5z M111.7,34.9c0.5-5.3,2.8-11.2,12-11.2
		c11.2,0,11.9,11.2,11.9,11.2H111.7z"/>
	<path class="st0" d="M239.8,16.2c-9.8,0-13.7,12.9-13.7,12.9V17.1h-7.6V61h8.3V36.8h0c0-4.9,4.2-12.9,12-12.9
		c7.8,0,7.5,9.4,7.5,9.4V61h8.2V33.6C254.5,23,251.9,16.2,239.8,16.2z"/>
	<path class="st0" d="M89.3,8L89.3,8H68.1v53h7.6V42.5h11.5c8.5,0,16.4-6.1,16.4-18C103.6,12.6,96.5,8,89.3,8z M86.7,35.3L86.7,35.3
		l-10.9,0V16.7h12.6c5.5,0,7.8,3.6,7.8,9.2S92.3,35.3,86.7,35.3z"/>
	<g>
		<path class="st0" d="M59.1,25.3V9.1H41.7c-5.2,0-9.3,3.2-9.3,3.2c-3.8-2.7-6.6-3.2-10.1-3.2H5v16.3c0,7.8,3.7,11,3.7,11
			C5.1,41,5,45.8,5,45.8v17.9h17.7c6.3,0,9.6-3.6,9.7-3.6c3.2,3.2,7.1,3.6,10.9,3.6h15.8V46.3c0-6.3-3.4-10-3.4-10
			C59.2,32.3,59.1,25.3,59.1,25.3z M11,14.9h11.2c2,0,4.1,0.6,5.8,1.7c-0.8,1.2-1.5,2.5-1.9,3.9c-0.4-0.2-0.7-0.5-0.7-0.5l-0.5-0.5
			c0,0-0.5,0.5-0.5,0.5c-0.5,0.5-0.9,0.7-1.4,0.7c-0.9,0-1.5-0.7-1.5-0.7l-0.5-0.5c0,0-0.5,0.5-0.5,0.5c-0.5,0.5-0.9,0.7-1.4,0.7
			c-0.9,0-1.5-0.7-1.5-0.7L17,19.6c0,0-0.5,0.5-0.5,0.5c-0.5,0.5-0.9,0.7-1.4,0.7c-0.9,0-1.5-0.7-1.5-0.7l-0.5-0.5
			c0,0-0.5,0.5-0.5,0.5c-0.5,0.5-0.9,0.7-1.4,0.7c-0.1,0-0.2,0-0.2,0V14.9z M25.1,27.7l-0.3-0.3c0,0-0.5,0.5-0.5,0.5
			c-0.5,0.5-0.9,0.7-1.4,0.7c-0.9,0-1.5-0.7-1.5-0.7l-0.5-0.5c0,0-0.5,0.5-0.5,0.5c-0.5,0.5-0.9,0.7-1.4,0.7c-0.9,0-1.5-0.7-1.5-0.7
			L17,27.4c0,0-0.5,0.5-0.5,0.5c-0.5,0.5-0.9,0.7-1.4,0.7c-0.9,0-1.5-0.7-1.5-0.7l-0.5-0.5v0c0,0-0.5,0.5-0.5,0.5
			c-0.5,0.5-0.9,0.7-1.4,0.7h0C11.1,27.8,11,27,11,26.2v-0.3c0.1,0,0.2,0,0.2,0c0.7,0,1.3-0.2,1.9-0.7c0.4,0.3,1.1,0.7,2,0.7
			c0.7,0,1.3-0.2,1.9-0.7c0.4,0.3,1.1,0.7,2,0.7c0.7,0,1.3-0.2,1.9-0.7c0.4,0.3,1.1,0.7,2,0.7c0.7,0,1.3-0.2,1.9-0.7
			c0.1,0.1,0.2,0.1,0.3,0.2C25,26.2,25.1,26.9,25.1,27.7z M24.8,23.5c0,0-0.5,0.5-0.5,0.5c-0.5,0.5-0.9,0.7-1.4,0.7
			c-0.9,0-1.5-0.7-1.5-0.7l-0.5-0.5c0,0-0.5,0.5-0.5,0.5c-0.5,0.5-0.9,0.7-1.4,0.7c-0.9,0-1.5-0.7-1.5-0.7L17,23.5
			c0,0-0.5,0.5-0.5,0.5c-0.5,0.5-0.9,0.7-1.4,0.7c-0.9,0-1.5-0.7-1.5-0.7l-0.5-0.5c0,0-0.5,0.5-0.5,0.5c-0.5,0.5-0.9,0.7-1.4,0.7
			c-0.1,0-0.2,0-0.2,0V22c0.8,0.1,1.5-0.2,2.2-0.7c0.4,0.3,1.1,0.7,2,0.7c0.7,0,1.4-0.2,1.9-0.7c0.4,0.3,1.1,0.7,2,0.7
			c0.7,0,1.4-0.2,1.9-0.7c0.4,0.3,1.1,0.7,2,0.7c0.7,0,1.4-0.2,1.9-0.7l0,0c0.3,0.2,0.5,0.3,0.8,0.4c-0.2,0.7-0.3,1.4-0.4,2.1
			L24.8,23.5z M22.4,57.7c-0.1,0-0.2,0-0.3,0H11V46.5c0-6.2,5-11.3,11.2-11.3c6.1-0.1,11.2,4.9,11.3,11.1
			C33.5,52.5,28.5,57.7,22.4,57.7z M53.3,57.7H42.2c-2,0-4.1-0.6-5.8-1.7c1.9-2.8,2.9-6.2,2.9-9.6c0-1.1-0.1-2.1-0.3-3.2
			c1,0.2,2.1,0.3,3.2,0.3c3.4,0,6.7-1,9.6-3c1,1.8,1.6,3.8,1.6,5.8V57.7z M53.3,26.2c0,6.2-5,11.3-11.2,11.3
			C36,37.5,31,32.5,31,26.2s5-11.3,11.1-11.3h11.2V26.2z"/>
		<ellipse class="st0" cx="24" cy="47.7" rx="1.4" ry="1.5"/>
		<path class="st0" d="M24.9,50.7c0,0-0.1,0-0.1,0c-0.8,0-1.4,0.7-1.4,1.5c0,0.8,0.6,1.4,1.4,1.4c0.8,0,1.5-0.6,1.5-1.4
			C26.3,51.4,25.7,50.8,24.9,50.7z"/>
		<path class="st0" d="M48.3,49.7c-2,0-3.6,1.6-3.6,3.6c0,2,1.6,3.6,3.6,3.6c2,0,3.6-1.6,3.6-3.6C51.8,51.3,50.2,49.7,48.3,49.7z
			 M48.3,56.1c-1.5,0-2.8-1.3-2.8-2.8c0-1.6,1.3-2.8,2.9-2.8c1.5,0,2.7,1.2,2.7,2.8C51,54.9,49.8,56.1,48.3,56.1z"/>
		<path class="st0" d="M17.6,46.4c-2.6,0-4.8,2.2-4.8,4.9c0,0,0,0,0,0c0,2.7,2.1,4.9,4.8,4.9c0,0,0,0,0,0c2.6,0,4.8-2.2,4.8-4.9
			S20.2,46.4,17.6,46.4z"/>
		<path class="st0" d="M46.7,26.3C46.7,26.3,46.7,26.3,46.7,26.3c2.7,0,4.8-2.2,4.8-4.9c0-2.7-2.1-4.9-4.8-4.9
			c-2.6,0-4.8,2.2-4.8,4.9C41.9,24.1,44,26.3,46.7,26.3z"/>
		<ellipse class="st0" cx="16.3" cy="44.1" rx="1.4" ry="1.5"/>
		<path class="st0" d="M20.8,46.1c0.8,0,1.4-0.6,1.4-1.4c0-0.8-0.6-1.5-1.4-1.5c-0.8,0-1.4,0.6-1.4,1.4
			C19.4,45.5,20.1,46.1,20.8,46.1z"/>
		<path class="st0" d="M49.9,54.7l0-0.7c0-0.5-0.2-0.6-0.5-0.7c0.2-0.1,0.5-0.4,0.5-0.9c0-0.8-0.6-1-1.2-1h-1.8v3.9h0.5v-1.7h0v0
			h1.2c0.6,0,0.7,0.4,0.7,0.7c0,0.1,0,0.7,0.1,1h0.6v-0.1C49.9,55,49.9,54.9,49.9,54.7z M48.6,53.1h-1.2v-1.3h1.3
			c0.3,0,0.7,0,0.7,0.6C49.4,53,49,53.1,48.6,53.1z"/>
	</g>
</g>
</svg>
